<svg xmlns="http://www.w3.org/2000/svg" xmlns:xlink="http://www.w3.org/1999/xlink" width="180" zoomAndPan="magnify" viewBox="0 0 135 82.499998" height="110" preserveAspectRatio="xMidYMid meet" version="1.0"><defs><clipPath id="id1"><path d="M 0.40625 16 L 134 16 L 134 69 L 0.40625 69 Z M 0.40625 16 " clip-rule="nonzero"/></clipPath><clipPath id="id2"><path d="M 32 4.835938 L 105 4.835938 L 105 59 L 32 59 Z M 32 4.835938 " clip-rule="nonzero"/></clipPath><clipPath id="id3"><path d="M 32 46 L 98 46 L 98 77.144531 L 32 77.144531 Z M 32 46 " clip-rule="nonzero"/></clipPath></defs><path fill="rgb(100%, 100%, 100%)" d="M 68.492188 2.335938 C 47.082031 2.335938 29.726562 19.691406 29.726562 41.101562 C 29.726562 62.507812 47.082031 79.863281 68.492188 79.863281 C 89.902344 79.863281 107.257812 62.507812 107.257812 41.101562 C 107.257812 19.691406 89.902344 2.335938 68.492188 2.335938 " fill-opacity="1" fill-rule="nonzero"/><g clip-path="url(#id1)"><path fill="rgb(100%, 100%, 100%)" d="M 72.382812 23.210938 C 35.78125 13.460938 3.832031 14.105469 1.023438 24.648438 C -1.785156 35.191406 25.613281 51.640625 62.214844 61.390625 C 98.816406 71.136719 130.765625 70.492188 133.570312 59.949219 C 136.378906 49.40625 108.984375 32.957031 72.382812 23.210938 " fill-opacity="1" fill-rule="nonzero"/></g><path fill="rgb(100%, 100%, 100%)" d="M 111.90625 29.382812 C 109.230469 29.382812 107.058594 31.554688 107.058594 34.230469 C 107.058594 36.90625 109.230469 39.074219 111.90625 39.074219 C 114.582031 39.074219 116.75 36.90625 116.75 34.230469 C 116.75 31.554688 114.582031 29.382812 111.90625 29.382812 " fill-opacity="1" fill-rule="nonzero"/><path fill="rgb(100%, 100%, 100%)" d="M 107.183594 23.664062 C 105.535156 23.664062 104.199219 25 104.199219 26.648438 C 104.199219 28.292969 105.535156 29.628906 107.183594 29.628906 C 108.828125 29.628906 110.164062 28.292969 110.164062 26.648438 C 110.164062 25 108.828125 23.664062 107.183594 23.664062 " fill-opacity="1" fill-rule="nonzero"/><path fill="rgb(100%, 100%, 100%)" d="M 17.378906 41 C 12.027344 41 7.6875 45.171875 7.6875 50.320312 C 7.6875 55.464844 12.027344 59.636719 17.378906 59.636719 C 22.730469 59.636719 27.070312 55.464844 27.070312 50.320312 C 27.070312 45.171875 22.730469 41 17.378906 41 " fill-opacity="1" fill-rule="nonzero"/><path fill="rgb(100%, 100%, 100%)" d="M 27.996094 51.890625 C 26.144531 51.890625 24.644531 53.394531 24.644531 55.246094 C 24.644531 57.097656 26.144531 58.601562 27.996094 58.601562 C 29.851562 58.601562 31.351562 57.097656 31.351562 55.246094 C 31.351562 53.394531 29.851562 51.890625 27.996094 51.890625 " fill-opacity="1" fill-rule="nonzero"/><path fill="rgb(14.118958%, 14.898682%, 36.468506%)" d="M 27.945312 52.875 C 26.652344 52.875 25.601562 53.921875 25.601562 55.210938 C 25.601562 56.5 26.652344 57.546875 27.945312 57.546875 C 29.238281 57.546875 30.285156 56.5 30.285156 55.210938 C 30.285156 53.921875 29.238281 52.875 27.945312 52.875 " fill-opacity="1" fill-rule="nonzero"/><path fill="rgb(14.118958%, 14.898682%, 36.468506%)" d="M 17.480469 42.433594 C 13.339844 42.433594 9.984375 45.78125 9.984375 49.914062 C 9.984375 54.042969 13.339844 57.390625 17.480469 57.390625 C 21.621094 57.390625 24.976562 54.042969 24.976562 49.914062 C 24.976562 45.78125 21.621094 42.433594 17.480469 42.433594 " fill-opacity="1" fill-rule="nonzero"/><path fill="rgb(7.449341%, 62.348938%, 83.139038%)" d="M 112.429688 37.449219 C 114.414062 37.449219 116.019531 35.84375 116.019531 33.863281 C 116.019531 31.886719 114.414062 30.28125 112.429688 30.28125 C 110.445312 30.28125 108.835938 31.886719 108.835938 33.863281 C 108.835938 35.84375 110.445312 37.449219 112.429688 37.449219 " fill-opacity="1" fill-rule="nonzero"/><path fill="rgb(7.449341%, 62.348938%, 83.139038%)" d="M 107.246094 28.441406 C 108.296875 28.441406 109.148438 27.589844 109.148438 26.542969 C 109.148438 25.492188 108.296875 24.644531 107.246094 24.644531 C 106.195312 24.644531 105.34375 25.492188 105.34375 26.542969 C 105.34375 27.589844 106.195312 28.441406 107.246094 28.441406 " fill-opacity="1" fill-rule="nonzero"/><path fill="rgb(7.449341%, 62.348938%, 83.139038%)" d="M 39.792969 15.328125 C 39.835938 14.375 39.875 13.417969 39.917969 12.464844 C 40.871094 12.394531 41.824219 12.324219 42.777344 12.253906 C 41.824219 12.183594 40.867188 12.113281 39.914062 12.042969 C 39.839844 11.121094 39.769531 10.195312 39.699219 9.269531 C 39.617188 10.207031 39.539062 11.144531 39.460938 12.082031 C 38.542969 12.167969 37.625 12.257812 36.710938 12.347656 C 37.640625 12.40625 38.566406 12.46875 39.496094 12.53125 C 39.59375 13.464844 39.695312 14.394531 39.792969 15.328125 " fill-opacity="1" fill-rule="nonzero"/><path fill="rgb(7.449341%, 62.348938%, 83.139038%)" d="M 34.222656 19.351562 C 34.25 18.71875 34.277344 18.089844 34.304688 17.457031 C 34.9375 17.410156 35.570312 17.363281 36.199219 17.316406 C 35.566406 17.269531 34.933594 17.222656 34.300781 17.175781 C 34.253906 16.566406 34.207031 15.953125 34.160156 15.339844 C 34.105469 15.960938 34.054688 16.582031 34.003906 17.203125 C 33.394531 17.261719 32.789062 17.320312 32.179688 17.378906 C 32.796875 17.417969 33.410156 17.460938 34.027344 17.5 C 34.09375 18.117188 34.15625 18.734375 34.222656 19.351562 " fill-opacity="1" fill-rule="nonzero"/><g clip-path="url(#id2)"><path fill="rgb(7.449341%, 62.348938%, 83.139038%)" d="M 61.949219 7.640625 C 68.023438 6.28125 73.199219 7.113281 76.242188 7.875 C 72.878906 7.523438 68.203125 7.464844 62.886719 8.777344 C 51.617188 11.566406 44.726562 18.742188 42.039062 21.898438 C 43.523438 19.601562 49.886719 10.335938 61.949219 7.640625 Z M 32.667969 40.753906 C 32.667969 40.789062 32.667969 40.828125 32.667969 40.867188 C 39.5 44.046875 48.335938 47.292969 58.542969 50.234375 C 73.46875 54.53125 88.363281 57.316406 100.089844 58.289062 C 103.003906 53.101562 104.664062 47.121094 104.664062 40.753906 C 104.664062 40.671875 104.664062 40.59375 104.664062 40.511719 C 104.660156 40.378906 104.660156 40.246094 104.660156 40.109375 C 104.316406 20.570312 88.332031 4.835938 68.664062 4.835938 C 55.269531 4.835938 43.582031 12.136719 37.382812 22.96875 C 37.128906 23.410156 36.886719 23.855469 36.652344 24.308594 C 34.105469 29.238281 32.667969 34.828125 32.667969 40.753906 " fill-opacity="1" fill-rule="nonzero"/></g><g clip-path="url(#id3)"><path fill="rgb(14.118958%, 14.898682%, 36.468506%)" d="M 32.816406 46.484375 C 35.371094 63.824219 50.34375 77.136719 68.429688 77.136719 C 80.476562 77.136719 91.144531 71.230469 97.679688 62.164062 C 84.550781 60.773438 68.621094 57.652344 52.660156 53.054688 C 45.402344 50.964844 38.730469 48.742188 32.816406 46.484375 " fill-opacity="1" fill-rule="nonzero"/></g><path fill="rgb(14.118958%, 14.898682%, 36.468506%)" d="M 104.660156 40.109375 C 104.660156 40.246094 104.664062 40.378906 104.664062 40.511719 C 119.089844 46.707031 126.339844 52.867188 121.808594 56.253906 C 118.71875 58.5625 110.703125 59.167969 100.089844 58.289062 C 88.363281 57.316406 73.46875 54.53125 58.542969 50.234375 C 48.332031 47.292969 39.5 44.046875 32.667969 40.867188 C 20.476562 35.1875 14.671875 29.722656 18.839844 26.609375 C 21.539062 24.589844 27.992188 23.875 36.652344 24.308594 C 36.886719 23.855469 37.128906 23.410156 37.382812 22.96875 C 22.128906 21.203125 10.359375 21.683594 6.191406 24.796875 C 0.203125 29.273438 11.71875 37.875 33.050781 46.019531 C 38.964844 48.273438 45.636719 50.5 52.894531 52.589844 C 68.855469 57.183594 84.785156 60.308594 97.910156 61.695312 C 112.292969 63.21875 123.3125 62.660156 127.3125 59.667969 C 132.898438 55.496094 123.269531 47.742188 104.660156 40.109375 " fill-opacity="1" fill-rule="nonzero"/></svg>